<svg width="24" height="19" viewBox="0 0 24 19" fill="none" xmlns="http://www.w3.org/2000/svg">
<path d="M2.33333 18.6667C1.69167 18.6667 1.14236 18.4382 0.685417 17.9812C0.228472 17.5243 0 16.975 0 16.3333V2.33333C0 1.69167 0.228472 1.14236 0.685417 0.685417C1.14236 0.228472 1.69167 0 2.33333 0H21C21.6417 0 22.191 0.228472 22.6479 0.685417C23.1049 1.14236 23.3333 1.69167 23.3333 2.33333V16.3333C23.3333 16.975 23.1049 17.5243 22.6479 17.9812C22.191 18.4382 21.6417 18.6667 21 18.6667H2.33333ZM11.6667 10.5L2.33333 4.66667V16.3333H21V4.66667L11.6667 10.5ZM11.6667 8.16667L21 2.33333H2.33333L11.6667 8.16667ZM2.33333 4.66667V2.33333V16.3333V4.66667Z" fill="#095E97"/>
</svg>
