<svg width="32" height="37" viewBox="0 0 32 37" fill="none" xmlns="http://www.w3.org/2000/svg">
<path d="M16 36.2105C13.7825 36.2105 11.7053 35.7895 9.76842 34.9474C7.83158 34.1053 6.14035 32.9614 4.69474 31.5158C3.24912 30.0702 2.10526 28.3789 1.26316 26.4421C0.421053 24.5053 0 22.4281 0 20.2105C0 17.993 0.421053 15.9158 1.26316 13.9789C2.10526 12.0421 3.24912 10.3509 4.69474 8.90526C6.14035 7.45965 7.83158 6.31579 9.76842 5.47368C11.7053 4.63158 13.7825 4.21053 16 4.21053V0L22.7368 6.73684L16 13.4737V9.26316C12.9684 9.26316 10.386 10.3298 8.25263 12.4632C6.1193 14.5965 5.05263 17.1789 5.05263 20.2105C5.05263 22.0632 5.4807 23.7825 6.33684 25.3684C7.19298 26.9544 8.33684 28.2386 9.76842 29.2211C10.2175 28.4351 10.8842 27.7684 11.7684 27.2211C12.6526 26.6737 13.6702 26.3298 14.8211 26.1895C14.7368 25.6 14.6246 25.0105 14.4842 24.4211C14.3439 23.8316 14.1754 23.2842 13.9789 22.7789C13.6702 23.0316 13.3333 23.2281 12.9684 23.3684C12.6035 23.5088 12.2105 23.5789 11.7895 23.5789C10.8632 23.5789 10.0702 23.2491 9.41053 22.5895C8.75088 21.9298 8.42105 21.1368 8.42105 20.2105V18.5263C8.42105 18.0491 8.34386 17.6 8.18947 17.1789C8.03509 16.7579 7.83158 16.3649 7.57895 16C8.98246 15.9719 10.2316 16.0982 11.3263 16.3789C12.2807 16.6316 13.1509 17.0456 13.9368 17.6211C14.7228 18.1965 15.1298 19.0596 15.1579 20.2105C15.1579 20.4632 15.1368 20.6947 15.0947 20.9053C15.0526 21.1158 14.9754 21.3333 14.8632 21.5579C14.4982 21.2772 14.1333 21.0246 13.7684 20.8C13.4035 20.5754 13.0246 20.3789 12.6316 20.2105C13.1088 20.5754 13.6561 21.1368 14.2737 21.8947C14.8912 22.6526 15.4667 23.5509 16 24.5895C16.5614 23.214 17.2632 21.8596 18.1053 20.5263C18.9474 19.193 19.9298 17.9649 21.0526 16.8421C20.407 17.2912 19.7895 17.7684 19.2 18.2737C18.6105 18.7789 18.0351 19.3123 17.4737 19.8737C17.2772 19.5649 17.1228 19.2211 17.0105 18.8421C16.8982 18.4632 16.8421 18.0772 16.8421 17.6842C16.8421 16.5053 17.2491 15.5088 18.0632 14.6947C18.8772 13.8807 19.8737 13.4737 21.0526 13.4737H22.7368C23.3825 13.4737 23.9158 13.3895 24.3368 13.2211C24.7579 13.0526 25.1088 12.8561 25.3895 12.6316C25.6982 12.3789 25.9368 12.0982 26.1053 11.7895C26.2175 13.6702 26.1193 15.3544 25.8105 16.8421C25.5579 18.1053 25.0807 19.2632 24.3789 20.3158C23.6772 21.3684 22.5684 21.8947 21.0526 21.8947C20.6316 21.8947 20.2316 21.8386 19.8526 21.7263C19.4737 21.614 19.1298 21.4596 18.8211 21.2632C18.6246 21.7965 18.4 22.5053 18.1474 23.3895C17.8947 24.2737 17.6982 25.2211 17.5579 26.2316C18.6246 26.4281 19.5649 26.793 20.3789 27.3263C21.193 27.8596 21.8105 28.4912 22.2316 29.2211C23.6632 28.2386 24.807 26.9614 25.6632 25.3895C26.5193 23.8175 26.9474 22.0912 26.9474 20.2105H32C32 22.4281 31.5789 24.5053 30.7368 26.4421C29.8947 28.3789 28.7509 30.0702 27.3053 31.5158C25.8596 32.9614 24.1684 34.1053 22.2316 34.9474C20.2947 35.7895 18.2175 36.2105 16 36.2105Z" fill="#06426A"/>
</svg>
