<svg width="25" height="25" viewBox="0 0 25 25" fill="none" xmlns="http://www.w3.org/2000/svg">
<path d="M9.73329 8.7335L12.3291 4.446L10.6083 1.58766C10.375 1.19877 10.0395 1.00433 9.60204 1.00433C9.16454 1.00433 8.82913 1.19877 8.59579 1.58766L5.73746 6.34183L9.73329 8.7335ZM21.0208 16.6668L18.425 12.3502L22.4791 10.0168L24.3458 13.1377C24.5597 13.4682 24.6763 13.8377 24.6958 14.246C24.7152 14.6543 24.6277 15.0335 24.4333 15.3835C24.2388 15.7724 23.952 16.0835 23.5729 16.3168C23.1937 16.5502 22.7805 16.6668 22.3333 16.6668H21.0208ZM17.6666 24.8335L13 20.1668L17.6666 15.5002V17.8335H23.2083L21.5166 21.2168C21.3027 21.6057 21.0111 21.9168 20.6416 22.1502C20.2722 22.3835 19.8638 22.5002 19.4166 22.5002H17.6666V24.8335ZM6.37913 22.5002C5.99024 22.5002 5.63538 22.3981 5.31454 22.1939C4.99371 21.9897 4.75552 21.7224 4.59996 21.3918C4.4444 21.0807 4.37149 20.755 4.38121 20.4147C4.39093 20.0745 4.48329 19.7585 4.65829 19.4668L5.64996 17.8335H10.6666V22.5002H6.37913ZM3.49163 19.1752L1.59579 15.3835C1.42079 15.0335 1.33815 14.6592 1.34788 14.2606C1.3576 13.862 1.4694 13.4877 1.68329 13.1377L2.14996 12.3502L0.166626 11.1543L6.55413 9.55016L8.15829 15.9668L6.14579 14.7418L3.49163 19.1752ZM19.2416 9.20016L12.8541 7.596L14.8666 6.40016L11.2208 0.333496H15.3333C15.7416 0.333496 16.1257 0.435579 16.4854 0.639746C16.8451 0.843913 17.1319 1.121 17.3458 1.471L18.8625 4.0085L20.8458 2.7835L19.2416 9.20016Z" fill="#095E97"/>
</svg>
