<svg width="24" height="25" viewBox="0 0 24 25" fill="none" xmlns="http://www.w3.org/2000/svg">
<path d="M19.9916 24.4708C19.836 24.4708 19.6902 24.4465 19.5541 24.3979C19.418 24.3493 19.2916 24.2667 19.1749 24.15L13.2249 18.2C13.1083 18.0833 13.0256 17.9569 12.977 17.8208C12.9284 17.6847 12.9041 17.5389 12.9041 17.3833C12.9041 17.2278 12.9284 17.0819 12.977 16.9458C13.0256 16.8097 13.1083 16.6833 13.2249 16.5667L15.7041 14.0875C15.8208 13.9708 15.9471 13.8882 16.0833 13.8396C16.2194 13.791 16.3652 13.7667 16.5208 13.7667C16.6763 13.7667 16.8221 13.791 16.9583 13.8396C17.0944 13.8882 17.2208 13.9708 17.3374 14.0875L23.2874 20.0375C23.4041 20.1542 23.4867 20.2806 23.5353 20.4167C23.5839 20.5528 23.6083 20.6986 23.6083 20.8542C23.6083 21.0097 23.5839 21.1556 23.5353 21.2917C23.4867 21.4278 23.4041 21.5542 23.2874 21.6708L20.8083 24.15C20.6916 24.2667 20.5652 24.3493 20.4291 24.3979C20.293 24.4465 20.1471 24.4708 19.9916 24.4708ZM19.9916 21.7L20.8374 20.8542L16.5499 16.5667L15.7041 17.4125L19.9916 21.7ZM3.97909 24.5C3.82353 24.5 3.67284 24.4708 3.527 24.4125C3.38117 24.3542 3.24992 24.2667 3.13325 24.15L0.683252 21.7C0.566585 21.5833 0.479085 21.4521 0.420752 21.3062C0.362419 21.1604 0.333252 21.0097 0.333252 20.8542C0.333252 20.6986 0.362419 20.5528 0.420752 20.4167C0.479085 20.2806 0.566585 20.1542 0.683252 20.0375L6.86659 13.8542H9.34575L10.3374 12.8625L5.52492 8.05H3.86242L0.333252 4.52083L3.62909 1.225L7.15825 4.75417V6.41667L11.9708 11.2292L15.3541 7.84583L14.0999 6.59167L15.7333 4.95833H12.4374L11.6208 4.14167L15.7624 0L16.5791 0.816667V4.1125L18.2124 2.47917L22.3541 6.62083C22.6846 6.95139 22.9374 7.32569 23.1124 7.74375C23.2874 8.16181 23.3749 8.60417 23.3749 9.07083C23.3749 9.5375 23.2874 9.98472 23.1124 10.4125C22.9374 10.8403 22.6846 11.2194 22.3541 11.55L19.8749 9.07083L18.2416 10.7042L17.0166 9.47917L10.9791 15.5167V17.9667L4.79575 24.15C4.67909 24.2667 4.5527 24.3542 4.41659 24.4125C4.28047 24.4708 4.13464 24.5 3.97909 24.5ZM3.97909 21.7L8.93742 16.7417V15.8958H8.09159L3.13325 20.8542L3.97909 21.7ZM3.97909 21.7L3.13325 20.8542L3.57075 21.2625L3.97909 21.7Z" fill="#095E97"/>
</svg>
