<svg width="32" height="32" viewBox="0 0 32 32" fill="none" xmlns="http://www.w3.org/2000/svg">
<path d="M11.6667 32C10.6444 32 9.72778 31.7091 8.91667 31.1273C8.10556 30.5455 7.47778 29.7455 7.03333 28.7273C6.67778 29.2364 6.22778 29.6303 5.68333 29.9091C5.13889 30.1879 4.57778 30.3273 4 30.3273C2.86667 30.3273 1.91667 29.903 1.15 29.0545C0.383333 28.2061 0 27.1758 0 25.9636C0 24.9212 0.311111 23.9818 0.933333 23.1455C1.55556 22.3091 2.34444 21.8303 3.3 21.7091C2.98889 21.2242 2.75 20.7091 2.58333 20.1636C2.41667 19.6182 2.33333 19.0424 2.33333 18.4364C2.33333 17.4667 2.56111 16.5576 3.01667 15.7091C3.47222 14.8606 4.11111 14.1697 4.93333 13.6364C5.04444 14.0727 5.19444 14.5394 5.38333 15.0364C5.57222 15.5333 5.78889 15.9636 6.03333 16.3273C5.72222 16.5939 5.47778 16.9152 5.3 17.2909C5.12222 17.6667 5.03333 18.0606 5.03333 18.4727C5.03333 19.8303 5.54445 20.6667 6.56667 20.9818C7.58889 21.297 8.55556 21.5515 9.46667 21.7455L10.1 22.9091C9.85556 23.6848 9.64444 24.3455 9.46667 24.8909C9.28889 25.4364 9.2 25.9273 9.2 26.3636C9.2 27.0909 9.43889 27.7273 9.91667 28.2727C10.3944 28.8182 10.9778 29.0909 11.6667 29.0909C12.5111 29.0909 13.2111 28.6788 13.7667 27.8545C14.3222 27.0303 14.7778 26.0606 15.1333 24.9455C15.4889 23.8303 15.7611 22.703 15.95 21.5636C16.1389 20.4242 16.2889 19.5515 16.4 18.9455L19 19.7091C18.8 20.8 18.5556 22.0485 18.2667 23.4545C17.9778 24.8606 17.5722 26.2 17.05 27.4727C16.5278 28.7455 15.8389 29.8182 14.9833 30.6909C14.1278 31.5636 13.0222 32 11.6667 32ZM4 27.4182C4.37778 27.4182 4.69444 27.2788 4.95 27C5.20556 26.7212 5.33333 26.3758 5.33333 25.9636C5.33333 25.5515 5.20556 25.2061 4.95 24.9273C4.69444 24.6485 4.37778 24.5091 4 24.5091C3.62222 24.5091 3.30556 24.6485 3.05 24.9273C2.79444 25.2061 2.66667 25.5515 2.66667 25.9636C2.66667 26.3758 2.79444 26.7212 3.05 27C3.30556 27.2788 3.62222 27.4182 4 27.4182ZM13.4667 21.6727C12.4444 20.6788 11.5167 19.7515 10.6833 18.8909C9.85 18.0303 9.13333 17.1939 8.53333 16.3818C7.93333 15.5697 7.47222 14.7576 7.15 13.9455C6.82778 13.1333 6.66667 12.2909 6.66667 11.4182C6.66667 9.84242 7.16111 8.51515 8.15 7.43636C9.13889 6.35758 10.3556 5.81818 11.8 5.81818C11.8889 5.81818 11.9667 5.82424 12.0333 5.83636C12.1 5.84849 12.1778 5.85455 12.2667 5.85455C12.1778 5.61212 12.1111 5.3697 12.0667 5.12727C12.0222 4.88485 12 4.6303 12 4.36364C12 3.15152 12.3889 2.12121 13.1667 1.27273C13.9444 0.424242 14.8889 0 16 0C17.1111 0 18.0556 0.424242 18.8333 1.27273C19.6111 2.12121 20 3.15152 20 4.36364C20 4.6303 19.9778 4.87879 19.9333 5.10909C19.8889 5.33939 19.8222 5.57576 19.7333 5.81818H20.2C21.5333 5.81818 22.6667 6.28485 23.6 7.21818C24.5333 8.15152 25.0889 9.30909 25.2667 10.6909C24.8667 10.6182 24.4167 10.5818 23.9167 10.5818C23.4167 10.5818 22.9556 10.6061 22.5333 10.6545C22.3778 10.097 22.0944 9.63636 21.6833 9.27273C21.2722 8.90909 20.7778 8.72727 20.2 8.72727C19.4222 8.72727 18.8167 8.97576 18.3833 9.47273C17.95 9.9697 17.3556 10.6909 16.6 11.6364H15.3667C14.5889 10.6424 13.9833 9.90909 13.55 9.43636C13.1167 8.96364 12.5333 8.72727 11.8 8.72727C11.0889 8.72727 10.5 8.98182 10.0333 9.49091C9.56667 10 9.33333 10.6424 9.33333 11.4182C9.33333 11.9758 9.47778 12.5515 9.76667 13.1455C10.0556 13.7394 10.4611 14.3697 10.9833 15.0364C11.5056 15.703 12.1389 16.4121 12.8833 17.1636C13.6278 17.9152 14.4556 18.7273 15.3667 19.6L13.4667 21.6727ZM16 5.81818C16.3778 5.81818 16.6944 5.67879 16.95 5.4C17.2056 5.12121 17.3333 4.77576 17.3333 4.36364C17.3333 3.95152 17.2056 3.60606 16.95 3.32727C16.6944 3.04849 16.3778 2.90909 16 2.90909C15.6222 2.90909 15.3056 3.04849 15.05 3.32727C14.7944 3.60606 14.6667 3.95152 14.6667 4.36364C14.6667 4.77576 14.7944 5.12121 15.05 5.4C15.3056 5.67879 15.6222 5.81818 16 5.81818ZM20.3 32C19.8111 32 19.3278 31.9273 18.85 31.7818C18.3722 31.6364 17.9111 31.4061 17.4667 31.0909C17.7111 30.7515 17.9556 30.3515 18.2 29.8909C18.4444 29.4303 18.6667 29.0061 18.8667 28.6182C19.1111 28.7879 19.3556 28.9091 19.6 28.9818C19.8444 29.0545 20.0889 29.0909 20.3333 29.0909C21.0444 29.0909 21.6389 28.8182 22.1167 28.2727C22.5944 27.7273 22.8333 27.0788 22.8333 26.3273C22.8333 25.8667 22.7444 25.3697 22.5667 24.8364C22.3889 24.303 22.1778 23.6485 21.9333 22.8727L22.5667 21.7091C23.5 21.5152 24.4722 21.2606 25.4833 20.9455C26.4944 20.6303 27 19.7939 27 18.4364C27 17.4667 26.6722 16.7636 26.0167 16.3273C25.3611 15.8909 24.6444 15.6727 23.8667 15.6727C22.9333 15.6727 21.8444 15.8667 20.6 16.2545C19.3556 16.6424 17.9 17.1394 16.2333 17.7455L15.5333 14.9091C17.2667 14.303 18.8111 13.7939 20.1667 13.3818C21.5222 12.9697 22.7667 12.7636 23.9 12.7636C25.4333 12.7636 26.7778 13.2606 27.9333 14.2545C29.0889 15.2485 29.6667 16.6424 29.6667 18.4364C29.6667 19.0424 29.5833 19.6182 29.4167 20.1636C29.25 20.7091 29.0111 21.2242 28.7 21.7091C29.6556 21.8303 30.4444 22.3091 31.0667 23.1455C31.6889 23.9818 32 24.9212 32 25.9636C32 27.1758 31.6167 28.2061 30.85 29.0545C30.0833 29.903 29.1333 30.3273 28 30.3273C27.4222 30.3273 26.8611 30.1879 26.3167 29.9091C25.7722 29.6303 25.3222 29.2364 24.9667 28.7273C24.5222 29.7455 23.8944 30.5455 23.0833 31.1273C22.2722 31.7091 21.3444 32 20.3 32ZM28.0333 27.4182C28.4111 27.4182 28.7222 27.2788 28.9667 27C29.2111 26.7212 29.3333 26.3758 29.3333 25.9636C29.3333 25.5515 29.2056 25.2 28.95 24.9091C28.6944 24.6182 28.3778 24.4727 28 24.4727C27.6222 24.4727 27.3056 24.6121 27.05 24.8909C26.7944 25.1697 26.6667 25.5152 26.6667 25.9273C26.6667 26.3394 26.8 26.6909 27.0667 26.9818C27.3333 27.2727 27.6556 27.4182 28.0333 27.4182Z" fill="#06426A"/>
</svg>
