<svg width="32" height="32" viewBox="0 0 32 32" fill="none" xmlns="http://www.w3.org/2000/svg">
<path d="M4.51886 27.4752C3.10671 26.0631 2.00053 24.4313 1.20032 22.5798C0.400107 20.7283 0 18.8141 0 16.8371C0 14.8601 0.376571 12.9066 1.12971 10.9767C1.88286 9.04676 3.10671 7.23451 4.80128 5.53994C5.89962 4.44161 7.25684 3.50018 8.87296 2.71566C10.4891 1.93113 12.4033 1.31136 14.6157 0.856338C16.828 0.401314 19.3542 0.126731 22.1942 0.0325879C25.0341 -0.0615549 28.2115 0.0482784 31.7261 0.362088C31.9772 3.68847 32.0556 6.74811 31.9615 9.54101C31.8673 12.3339 31.6085 14.8522 31.1848 17.096C30.7612 19.3397 30.1649 21.301 29.3961 22.9799C28.6273 24.6588 27.678 26.0631 26.5483 27.1928C24.8851 28.856 23.1199 30.072 21.2527 30.8408C19.3856 31.6097 17.4792 31.9941 15.5336 31.9941C13.4938 31.9941 11.5011 31.594 9.5555 30.7938C7.60988 29.9935 5.931 28.8874 4.51886 27.4752ZM9.79085 26.7221C10.7009 27.2556 11.6345 27.64 12.5916 27.8753C13.5487 28.1107 14.5294 28.2284 15.5336 28.2284C16.9771 28.2284 18.4049 27.9381 19.8171 27.3575C21.2292 26.777 22.5786 25.8434 23.8652 24.5568C24.4301 23.9919 25.0028 23.1996 25.5833 22.1797C26.1639 21.1598 26.666 19.8261 27.0896 18.1786C27.5132 16.5311 27.8349 14.5384 28.0546 12.2005C28.2742 9.86267 28.3056 7.07761 28.1487 3.84537C26.611 3.78261 24.8772 3.75907 22.9473 3.77476C21.0174 3.79046 19.0953 3.93951 17.1811 4.22194C15.2668 4.50437 13.4467 4.9594 11.7208 5.58701C9.99483 6.21463 8.58269 7.07761 7.48435 8.17594C6.07221 9.58808 5.0994 10.9845 4.56593 12.3653C4.03245 13.7461 3.76571 15.0797 3.76571 16.3664C3.76571 18.2178 4.11875 19.8418 4.82482 21.2383C5.53089 22.6347 6.15066 23.6154 6.68414 24.1802C8.00214 21.6697 9.74378 19.2613 11.9091 16.9548C14.0744 14.6483 16.6005 12.7576 19.4876 11.2827C17.2281 13.2597 15.259 15.4955 13.5801 17.9903C11.9012 20.4851 10.6381 23.3957 9.79085 26.7221Z" fill="#06426A"/>
</svg>
